<mxfile host="app.diagrams.net" modified="2024-05-14T14:32:57.657Z" agent="Mozilla/5.0 (Macintosh; Intel Mac OS X 10_15_7) AppleWebKit/537.36 (KHTML, like Gecko) Chrome/124.0.0.0 Safari/537.36" etag="bW8bs6BJTKEwxBB4T2rs" version="24.3.1" type="github" pages="4">
  <diagram name="System Archetecture" id="NKREtiaIT2iQf3O8sY26">
    <mxGraphModel dx="1220" dy="674" grid="1" gridSize="10" guides="1" tooltips="1" connect="1" arrows="1" fold="1" page="1" pageScale="1" pageWidth="827" pageHeight="1169" math="0" shadow="0">
      <root>
        <mxCell id="0" />
        <mxCell id="1" parent="0" />
        <mxCell id="IO_ei6rsNQWMSOrWi16l-1" value="Video&lt;div&gt;(Original)&lt;/div&gt;" style="shape=process;whiteSpace=wrap;html=1;backgroundOutline=1;" vertex="1" parent="1">
          <mxGeometry x="20" y="365" width="120" height="60" as="geometry" />
        </mxCell>
        <mxCell id="IO_ei6rsNQWMSOrWi16l-2" value="Video Data&lt;div&gt;(Original)&lt;/div&gt;" style="shape=tape;whiteSpace=wrap;html=1;" vertex="1" parent="1">
          <mxGeometry x="260" y="240" width="80" height="80" as="geometry" />
        </mxCell>
        <mxCell id="IO_ei6rsNQWMSOrWi16l-3" value="Audio Data&lt;div&gt;(Original)&lt;/div&gt;" style="shape=tape;whiteSpace=wrap;html=1;" vertex="1" parent="1">
          <mxGeometry x="260" y="355" width="80" height="80" as="geometry" />
        </mxCell>
        <mxCell id="IO_ei6rsNQWMSOrWi16l-5" value="" style="endArrow=classic;html=1;rounded=0;" edge="1" parent="1">
          <mxGeometry width="50" height="50" relative="1" as="geometry">
            <mxPoint x="160" y="380" as="sourcePoint" />
            <mxPoint x="250" y="290" as="targetPoint" />
          </mxGeometry>
        </mxCell>
        <mxCell id="IO_ei6rsNQWMSOrWi16l-6" value="" style="endArrow=classic;html=1;rounded=0;" edge="1" parent="1">
          <mxGeometry width="50" height="50" relative="1" as="geometry">
            <mxPoint x="160" y="395" as="sourcePoint" />
            <mxPoint x="250" y="395" as="targetPoint" />
          </mxGeometry>
        </mxCell>
        <mxCell id="IO_ei6rsNQWMSOrWi16l-7" value="" style="endArrow=classic;html=1;rounded=0;" edge="1" parent="1">
          <mxGeometry width="50" height="50" relative="1" as="geometry">
            <mxPoint x="160" y="410" as="sourcePoint" />
            <mxPoint x="250" y="500" as="targetPoint" />
          </mxGeometry>
        </mxCell>
        <mxCell id="IO_ei6rsNQWMSOrWi16l-8" value="&amp;nbsp; &amp;nbsp;&lt;span style=&quot;background-color: initial;&quot;&gt;Texure&amp;nbsp; &amp;nbsp;&lt;/span&gt;&lt;div&gt;(Original)&lt;span style=&quot;background-color: initial;&quot;&gt;&lt;br&gt;&lt;/span&gt;&lt;/div&gt;" style="shape=note;whiteSpace=wrap;html=1;backgroundOutline=1;darkOpacity=0.05;" vertex="1" parent="1">
          <mxGeometry x="440" y="365" width="100" height="55" as="geometry" />
        </mxCell>
        <mxCell id="IO_ei6rsNQWMSOrWi16l-9" value="" style="endArrow=classic;html=1;rounded=0;entryX=0.828;entryY=1.003;entryDx=0;entryDy=0;entryPerimeter=0;" edge="1" parent="1" target="IO_ei6rsNQWMSOrWi16l-10">
          <mxGeometry width="50" height="50" relative="1" as="geometry">
            <mxPoint x="350" y="394.5" as="sourcePoint" />
            <mxPoint x="470" y="395" as="targetPoint" />
          </mxGeometry>
        </mxCell>
        <mxCell id="IO_ei6rsNQWMSOrWi16l-10" value="Speach To Text" style="text;html=1;align=center;verticalAlign=middle;resizable=0;points=[];autosize=1;strokeColor=none;fillColor=none;" vertex="1" parent="1">
          <mxGeometry x="330" y="365" width="110" height="30" as="geometry" />
        </mxCell>
        <mxCell id="IO_ei6rsNQWMSOrWi16l-12" value="Summary&amp;nbsp; &amp;nbsp; &amp;nbsp;&amp;nbsp;" style="shape=note;whiteSpace=wrap;html=1;backgroundOutline=1;darkOpacity=0.05;" vertex="1" parent="1">
          <mxGeometry x="620" y="522.5" width="100" height="55" as="geometry" />
        </mxCell>
        <mxCell id="IO_ei6rsNQWMSOrWi16l-13" value="" style="endArrow=classic;html=1;rounded=0;" edge="1" parent="1">
          <mxGeometry width="50" height="50" relative="1" as="geometry">
            <mxPoint x="479.74" y="425" as="sourcePoint" />
            <mxPoint x="480" y="490" as="targetPoint" />
          </mxGeometry>
        </mxCell>
        <mxCell id="IO_ei6rsNQWMSOrWi16l-14" value="LLM" style="text;html=1;align=center;verticalAlign=middle;resizable=0;points=[];autosize=1;strokeColor=none;fillColor=none;" vertex="1" parent="1">
          <mxGeometry x="510" y="492.5" width="50" height="30" as="geometry" />
        </mxCell>
        <mxCell id="IO_ei6rsNQWMSOrWi16l-16" value="" style="endArrow=classic;html=1;rounded=0;" edge="1" parent="1">
          <mxGeometry width="50" height="50" relative="1" as="geometry">
            <mxPoint x="370" y="520" as="sourcePoint" />
            <mxPoint x="450" y="521" as="targetPoint" />
          </mxGeometry>
        </mxCell>
        <mxCell id="IO_ei6rsNQWMSOrWi16l-17" value="Subtitle&amp;nbsp; &amp;nbsp;&amp;nbsp;&lt;div&gt;Data&amp;nbsp; &amp;nbsp;&amp;nbsp;&lt;/div&gt;" style="shape=note;whiteSpace=wrap;html=1;backgroundOutline=1;darkOpacity=0.05;" vertex="1" parent="1">
          <mxGeometry x="260" y="480" width="100" height="55" as="geometry" />
        </mxCell>
        <mxCell id="IO_ei6rsNQWMSOrWi16l-19" value="" style="verticalLabelPosition=bottom;verticalAlign=top;html=1;shape=mxgraph.flowchart.summing_function;" vertex="1" parent="1">
          <mxGeometry x="460" y="500" width="40" height="40" as="geometry" />
        </mxCell>
        <mxCell id="IO_ei6rsNQWMSOrWi16l-20" value="" style="endArrow=classic;html=1;rounded=0;" edge="1" parent="1">
          <mxGeometry width="50" height="50" relative="1" as="geometry">
            <mxPoint x="510" y="520" as="sourcePoint" />
            <mxPoint x="610" y="480" as="targetPoint" />
            <Array as="points">
              <mxPoint x="560" y="520" />
              <mxPoint x="560" y="480" />
            </Array>
          </mxGeometry>
        </mxCell>
        <mxCell id="IO_ei6rsNQWMSOrWi16l-21" value="" style="endArrow=classic;html=1;rounded=0;exitX=-0.003;exitY=0.924;exitDx=0;exitDy=0;exitPerimeter=0;" edge="1" parent="1" source="IO_ei6rsNQWMSOrWi16l-14">
          <mxGeometry width="50" height="50" relative="1" as="geometry">
            <mxPoint x="520" y="519.5" as="sourcePoint" />
            <mxPoint x="610" y="549.5" as="targetPoint" />
            <Array as="points">
              <mxPoint x="560" y="519.5" />
              <mxPoint x="560" y="549.5" />
            </Array>
          </mxGeometry>
        </mxCell>
        <mxCell id="IO_ei6rsNQWMSOrWi16l-22" value="Timeline of Important Plot" style="rounded=0;whiteSpace=wrap;html=1;" vertex="1" parent="1">
          <mxGeometry x="620" y="460" width="100" height="45" as="geometry" />
        </mxCell>
        <mxCell id="IO_ei6rsNQWMSOrWi16l-23" value="" style="endArrow=classic;html=1;rounded=0;" edge="1" parent="1">
          <mxGeometry width="50" height="50" relative="1" as="geometry">
            <mxPoint x="350" y="280" as="sourcePoint" />
            <mxPoint x="630" y="280" as="targetPoint" />
          </mxGeometry>
        </mxCell>
        <mxCell id="IO_ei6rsNQWMSOrWi16l-24" value="" style="endArrow=classic;html=1;rounded=0;" edge="1" parent="1">
          <mxGeometry width="50" height="50" relative="1" as="geometry">
            <mxPoint x="660" y="450" as="sourcePoint" />
            <mxPoint x="660" y="310" as="targetPoint" />
          </mxGeometry>
        </mxCell>
        <mxCell id="IO_ei6rsNQWMSOrWi16l-25" value="" style="verticalLabelPosition=bottom;verticalAlign=top;html=1;shape=mxgraph.flowchart.summing_function;" vertex="1" parent="1">
          <mxGeometry x="640" y="260" width="40" height="40" as="geometry" />
        </mxCell>
        <mxCell id="IO_ei6rsNQWMSOrWi16l-26" value="" style="endArrow=classic;html=1;rounded=0;" edge="1" parent="1">
          <mxGeometry width="50" height="50" relative="1" as="geometry">
            <mxPoint x="690" y="280" as="sourcePoint" />
            <mxPoint x="810" y="280" as="targetPoint" />
          </mxGeometry>
        </mxCell>
        <mxCell id="IO_ei6rsNQWMSOrWi16l-27" value="Cutting with I-Frame&amp;nbsp;&lt;div&gt;Skipping Tech&lt;/div&gt;" style="text;html=1;align=center;verticalAlign=middle;resizable=0;points=[];autosize=1;strokeColor=none;fillColor=none;" vertex="1" parent="1">
          <mxGeometry x="672" y="245" width="130" height="40" as="geometry" />
        </mxCell>
        <mxCell id="IO_ei6rsNQWMSOrWi16l-28" value="Video Data" style="shape=tape;whiteSpace=wrap;html=1;" vertex="1" parent="1">
          <mxGeometry x="820" y="240" width="80" height="80" as="geometry" />
        </mxCell>
        <mxCell id="IO_ei6rsNQWMSOrWi16l-29" value="" style="endArrow=classic;html=1;rounded=0;" edge="1" parent="1">
          <mxGeometry width="50" height="50" relative="1" as="geometry">
            <mxPoint x="730" y="560" as="sourcePoint" />
            <mxPoint x="800" y="560" as="targetPoint" />
          </mxGeometry>
        </mxCell>
        <mxCell id="IO_ei6rsNQWMSOrWi16l-30" value="Audio Data" style="shape=tape;whiteSpace=wrap;html=1;" vertex="1" parent="1">
          <mxGeometry x="820" y="510" width="80" height="80" as="geometry" />
        </mxCell>
        <mxCell id="IO_ei6rsNQWMSOrWi16l-31" value="Text To Speach" style="text;html=1;align=center;verticalAlign=middle;resizable=0;points=[];autosize=1;strokeColor=none;fillColor=none;" vertex="1" parent="1">
          <mxGeometry x="710" y="528.5" width="110" height="30" as="geometry" />
        </mxCell>
        <mxCell id="IO_ei6rsNQWMSOrWi16l-32" value="" style="endArrow=classic;html=1;rounded=0;" edge="1" parent="1">
          <mxGeometry width="50" height="50" relative="1" as="geometry">
            <mxPoint x="859.74" y="320" as="sourcePoint" />
            <mxPoint x="860" y="390" as="targetPoint" />
          </mxGeometry>
        </mxCell>
        <mxCell id="IO_ei6rsNQWMSOrWi16l-33" value="" style="endArrow=classic;html=1;rounded=0;" edge="1" parent="1">
          <mxGeometry width="50" height="50" relative="1" as="geometry">
            <mxPoint x="859.74" y="505" as="sourcePoint" />
            <mxPoint x="860" y="440" as="targetPoint" />
          </mxGeometry>
        </mxCell>
        <mxCell id="IO_ei6rsNQWMSOrWi16l-34" value="" style="verticalLabelPosition=bottom;verticalAlign=top;html=1;shape=mxgraph.flowchart.summing_function;" vertex="1" parent="1">
          <mxGeometry x="840" y="395" width="40" height="40" as="geometry" />
        </mxCell>
        <mxCell id="IO_ei6rsNQWMSOrWi16l-35" value="" style="endArrow=classic;html=1;rounded=0;" edge="1" parent="1">
          <mxGeometry width="50" height="50" relative="1" as="geometry">
            <mxPoint x="890" y="414.5" as="sourcePoint" />
            <mxPoint x="944" y="415" as="targetPoint" />
          </mxGeometry>
        </mxCell>
        <mxCell id="IO_ei6rsNQWMSOrWi16l-36" value="Video" style="shape=process;whiteSpace=wrap;html=1;backgroundOutline=1;" vertex="1" parent="1">
          <mxGeometry x="970" y="335" width="120" height="60" as="geometry" />
        </mxCell>
        <mxCell id="lHVtIV1GcRpJbTztH8B7-1" value="&lt;i&gt;or&lt;/i&gt;" style="text;html=1;align=center;verticalAlign=middle;resizable=0;points=[];autosize=1;strokeColor=none;fillColor=none;" vertex="1" parent="1">
          <mxGeometry x="1015" y="400" width="30" height="30" as="geometry" />
        </mxCell>
        <mxCell id="lHVtIV1GcRpJbTztH8B7-2" value="PowerPoint" style="shape=process;whiteSpace=wrap;html=1;backgroundOutline=1;" vertex="1" parent="1">
          <mxGeometry x="970" y="433" width="120" height="60" as="geometry" />
        </mxCell>
      </root>
    </mxGraphModel>
  </diagram>
  <diagram id="qRYvF75M3phBD7opVhG8" name="I-Frame Skipping Algorithm">
    <mxGraphModel dx="1338" dy="739" grid="1" gridSize="10" guides="1" tooltips="1" connect="1" arrows="1" fold="1" page="1" pageScale="1" pageWidth="827" pageHeight="1169" math="0" shadow="0">
      <root>
        <mxCell id="0" />
        <mxCell id="1" parent="0" />
        <mxCell id="TpNv9ZGzeeCYElewKbpR-1" value="I" style="rounded=0;whiteSpace=wrap;html=1;fontSize=20;" vertex="1" parent="1">
          <mxGeometry x="40" y="510" width="40" height="60" as="geometry" />
        </mxCell>
        <mxCell id="TpNv9ZGzeeCYElewKbpR-2" value="B" style="rounded=0;whiteSpace=wrap;html=1;fontSize=20;" vertex="1" parent="1">
          <mxGeometry x="80" y="510" width="40" height="60" as="geometry" />
        </mxCell>
        <mxCell id="TpNv9ZGzeeCYElewKbpR-3" value="B" style="rounded=0;whiteSpace=wrap;html=1;fontSize=20;" vertex="1" parent="1">
          <mxGeometry x="120" y="510" width="40" height="60" as="geometry" />
        </mxCell>
        <mxCell id="TpNv9ZGzeeCYElewKbpR-4" value="P" style="rounded=0;whiteSpace=wrap;html=1;fontSize=20;" vertex="1" parent="1">
          <mxGeometry x="160" y="510" width="40" height="60" as="geometry" />
        </mxCell>
        <mxCell id="TpNv9ZGzeeCYElewKbpR-5" value="B" style="rounded=0;whiteSpace=wrap;html=1;fontSize=20;" vertex="1" parent="1">
          <mxGeometry x="200" y="510" width="40" height="60" as="geometry" />
        </mxCell>
        <mxCell id="TpNv9ZGzeeCYElewKbpR-6" value="B" style="rounded=0;whiteSpace=wrap;html=1;fontSize=20;" vertex="1" parent="1">
          <mxGeometry x="240" y="510" width="40" height="60" as="geometry" />
        </mxCell>
        <mxCell id="TpNv9ZGzeeCYElewKbpR-7" value="I" style="rounded=0;whiteSpace=wrap;html=1;fontSize=20;" vertex="1" parent="1">
          <mxGeometry x="280" y="510" width="40" height="60" as="geometry" />
        </mxCell>
        <mxCell id="TpNv9ZGzeeCYElewKbpR-8" value="B" style="rounded=0;whiteSpace=wrap;html=1;fontSize=20;" vertex="1" parent="1">
          <mxGeometry x="320" y="510" width="40" height="60" as="geometry" />
        </mxCell>
        <mxCell id="TpNv9ZGzeeCYElewKbpR-9" value="B" style="rounded=0;whiteSpace=wrap;html=1;fontSize=20;" vertex="1" parent="1">
          <mxGeometry x="360" y="510" width="40" height="60" as="geometry" />
        </mxCell>
        <mxCell id="TpNv9ZGzeeCYElewKbpR-10" value="P" style="rounded=0;whiteSpace=wrap;html=1;fontSize=20;" vertex="1" parent="1">
          <mxGeometry x="400" y="510" width="40" height="60" as="geometry" />
        </mxCell>
        <mxCell id="TpNv9ZGzeeCYElewKbpR-11" value="B" style="rounded=0;whiteSpace=wrap;html=1;fontSize=20;" vertex="1" parent="1">
          <mxGeometry x="440" y="510" width="40" height="60" as="geometry" />
        </mxCell>
        <mxCell id="TpNv9ZGzeeCYElewKbpR-12" value="B" style="rounded=0;whiteSpace=wrap;html=1;fontSize=20;" vertex="1" parent="1">
          <mxGeometry x="480" y="510" width="40" height="60" as="geometry" />
        </mxCell>
        <mxCell id="TpNv9ZGzeeCYElewKbpR-13" value="I" style="rounded=0;whiteSpace=wrap;html=1;fontSize=20;" vertex="1" parent="1">
          <mxGeometry x="520" y="510" width="40" height="60" as="geometry" />
        </mxCell>
        <mxCell id="TpNv9ZGzeeCYElewKbpR-14" value="&lt;font style=&quot;font-size: 20px;&quot;&gt;... ...&lt;/font&gt;" style="rounded=0;whiteSpace=wrap;html=1;" vertex="1" parent="1">
          <mxGeometry x="560" y="510" width="120" height="60" as="geometry" />
        </mxCell>
        <mxCell id="TpNv9ZGzeeCYElewKbpR-15" value="I" style="rounded=0;whiteSpace=wrap;html=1;fontSize=20;" vertex="1" parent="1">
          <mxGeometry x="680" y="510" width="40" height="60" as="geometry" />
        </mxCell>
        <mxCell id="TpNv9ZGzeeCYElewKbpR-16" value="B" style="rounded=0;whiteSpace=wrap;html=1;fontSize=20;" vertex="1" parent="1">
          <mxGeometry x="720" y="510" width="40" height="60" as="geometry" />
        </mxCell>
        <mxCell id="TpNv9ZGzeeCYElewKbpR-17" value="B" style="rounded=0;whiteSpace=wrap;html=1;fontSize=20;" vertex="1" parent="1">
          <mxGeometry x="760" y="510" width="40" height="60" as="geometry" />
        </mxCell>
        <mxCell id="TpNv9ZGzeeCYElewKbpR-18" value="P" style="rounded=0;whiteSpace=wrap;html=1;fontSize=20;" vertex="1" parent="1">
          <mxGeometry x="800" y="510" width="40" height="60" as="geometry" />
        </mxCell>
        <mxCell id="TpNv9ZGzeeCYElewKbpR-19" value="B" style="rounded=0;whiteSpace=wrap;html=1;fontSize=20;" vertex="1" parent="1">
          <mxGeometry x="840" y="510" width="40" height="60" as="geometry" />
        </mxCell>
        <mxCell id="TpNv9ZGzeeCYElewKbpR-21" value="" style="endArrow=none;html=1;rounded=0;strokeWidth=2;" edge="1" parent="1">
          <mxGeometry width="50" height="50" relative="1" as="geometry">
            <mxPoint x="379.5" y="500" as="sourcePoint" />
            <mxPoint x="379.5" y="450" as="targetPoint" />
          </mxGeometry>
        </mxCell>
        <mxCell id="TpNv9ZGzeeCYElewKbpR-22" value="" style="endArrow=none;html=1;rounded=0;strokeWidth=2;" edge="1" parent="1">
          <mxGeometry width="50" height="50" relative="1" as="geometry">
            <mxPoint x="859.5" y="500" as="sourcePoint" />
            <mxPoint x="859.5" y="450" as="targetPoint" />
          </mxGeometry>
        </mxCell>
        <mxCell id="TpNv9ZGzeeCYElewKbpR-23" value="B" style="rounded=0;whiteSpace=wrap;html=1;fontSize=20;" vertex="1" parent="1">
          <mxGeometry x="880" y="510" width="40" height="60" as="geometry" />
        </mxCell>
        <mxCell id="TpNv9ZGzeeCYElewKbpR-24" value="&lt;span style=&quot;font-size: 18px;&quot;&gt;Start Timestamp&lt;/span&gt;" style="text;html=1;align=center;verticalAlign=middle;resizable=0;points=[];autosize=1;strokeColor=none;fillColor=none;" vertex="1" parent="1">
          <mxGeometry x="305" y="405" width="150" height="40" as="geometry" />
        </mxCell>
        <mxCell id="TpNv9ZGzeeCYElewKbpR-25" value="&lt;span style=&quot;font-size: 18px;&quot;&gt;End Timestamp&lt;/span&gt;" style="text;html=1;align=center;verticalAlign=middle;resizable=0;points=[];autosize=1;strokeColor=none;fillColor=none;" vertex="1" parent="1">
          <mxGeometry x="785" y="400" width="150" height="40" as="geometry" />
        </mxCell>
        <mxCell id="TpNv9ZGzeeCYElewKbpR-26" value="" style="endArrow=classic;html=1;rounded=0;strokeWidth=2;" edge="1" parent="1">
          <mxGeometry width="50" height="50" relative="1" as="geometry">
            <mxPoint x="530" y="491" as="sourcePoint" />
            <mxPoint x="390" y="491" as="targetPoint" />
          </mxGeometry>
        </mxCell>
        <mxCell id="TpNv9ZGzeeCYElewKbpR-27" value="" style="endArrow=classic;html=1;rounded=0;strokeWidth=2;" edge="1" parent="1">
          <mxGeometry width="50" height="50" relative="1" as="geometry">
            <mxPoint x="710" y="491" as="sourcePoint" />
            <mxPoint x="850" y="491" as="targetPoint" />
          </mxGeometry>
        </mxCell>
        <mxCell id="TpNv9ZGzeeCYElewKbpR-28" value="Expected to be cutted" style="text;html=1;align=center;verticalAlign=middle;resizable=0;points=[];autosize=1;strokeColor=none;fillColor=none;fontSize=14;" vertex="1" parent="1">
          <mxGeometry x="541" y="475" width="160" height="30" as="geometry" />
        </mxCell>
        <mxCell id="8QuSxBZ-_rbjHL4d78aY-2" value="" style="endArrow=classic;html=1;rounded=0;strokeWidth=2;" edge="1" parent="1">
          <mxGeometry width="50" height="50" relative="1" as="geometry">
            <mxPoint x="379.7" y="610" as="sourcePoint" />
            <mxPoint x="379.7" y="580" as="targetPoint" />
          </mxGeometry>
        </mxCell>
        <mxCell id="8QuSxBZ-_rbjHL4d78aY-4" value="&lt;font color=&quot;#3333ff&quot; style=&quot;font-size: 18px;&quot;&gt;1&lt;/font&gt;" style="ellipse;whiteSpace=wrap;html=1;aspect=fixed;strokeColor=#3333FF;" vertex="1" parent="1">
          <mxGeometry x="490" y="350" width="30" height="30" as="geometry" />
        </mxCell>
        <mxCell id="8QuSxBZ-_rbjHL4d78aY-5" value="&lt;font color=&quot;#3333ff&quot;&gt;&lt;span style=&quot;font-size: 18px;&quot;&gt;2&lt;/span&gt;&lt;/font&gt;" style="ellipse;whiteSpace=wrap;html=1;aspect=fixed;strokeColor=#3333FF;" vertex="1" parent="1">
          <mxGeometry x="500" y="680" width="30" height="30" as="geometry" />
        </mxCell>
        <mxCell id="8QuSxBZ-_rbjHL4d78aY-6" value="" style="curved=1;endArrow=classic;html=1;rounded=0;strokeWidth=2;strokeColor=#CC0000;" edge="1" parent="1">
          <mxGeometry width="50" height="50" relative="1" as="geometry">
            <mxPoint x="860" y="390" as="sourcePoint" />
            <mxPoint x="930" y="390" as="targetPoint" />
            <Array as="points">
              <mxPoint x="880" y="360" />
              <mxPoint x="920" y="360" />
            </Array>
          </mxGeometry>
        </mxCell>
        <mxCell id="8QuSxBZ-_rbjHL4d78aY-7" value="I" style="rounded=0;whiteSpace=wrap;html=1;fontSize=20;" vertex="1" parent="1">
          <mxGeometry x="920" y="510" width="40" height="60" as="geometry" />
        </mxCell>
        <mxCell id="8QuSxBZ-_rbjHL4d78aY-8" value="&lt;font style=&quot;font-size: 20px;&quot;&gt;... ...&lt;/font&gt;" style="rounded=0;whiteSpace=wrap;html=1;" vertex="1" parent="1">
          <mxGeometry x="960" y="510" width="120" height="60" as="geometry" />
        </mxCell>
        <mxCell id="8QuSxBZ-_rbjHL4d78aY-9" value="" style="endArrow=none;html=1;rounded=0;strokeWidth=2;strokeColor=#CC0000;" edge="1" parent="1">
          <mxGeometry width="50" height="50" relative="1" as="geometry">
            <mxPoint x="935" y="500" as="sourcePoint" />
            <mxPoint x="935" y="450" as="targetPoint" />
          </mxGeometry>
        </mxCell>
        <mxCell id="8QuSxBZ-_rbjHL4d78aY-10" value="" style="endArrow=none;html=1;rounded=0;strokeWidth=2;strokeColor=#CC0000;" edge="1" parent="1">
          <mxGeometry width="50" height="50" relative="1" as="geometry">
            <mxPoint x="299.64" y="499" as="sourcePoint" />
            <mxPoint x="299.64" y="449" as="targetPoint" />
          </mxGeometry>
        </mxCell>
        <mxCell id="8QuSxBZ-_rbjHL4d78aY-11" value="" style="curved=1;endArrow=none;html=1;rounded=0;strokeWidth=2;strokeColor=#CC0000;startArrow=classic;startFill=1;endFill=0;" edge="1" parent="1">
          <mxGeometry width="50" height="50" relative="1" as="geometry">
            <mxPoint x="300" y="405" as="sourcePoint" />
            <mxPoint x="370" y="405" as="targetPoint" />
            <Array as="points">
              <mxPoint x="320" y="375" />
              <mxPoint x="360" y="375" />
            </Array>
          </mxGeometry>
        </mxCell>
        <mxCell id="8QuSxBZ-_rbjHL4d78aY-12" value="" style="endArrow=classic;html=1;rounded=0;strokeWidth=2;strokeColor=#CC0000;" edge="1" parent="1">
          <mxGeometry width="50" height="50" relative="1" as="geometry">
            <mxPoint x="530" y="470" as="sourcePoint" />
            <mxPoint x="305" y="470" as="targetPoint" />
          </mxGeometry>
        </mxCell>
        <mxCell id="8QuSxBZ-_rbjHL4d78aY-13" value="" style="endArrow=classic;html=1;rounded=0;strokeWidth=2;strokeColor=#CC0000;" edge="1" parent="1">
          <mxGeometry width="50" height="50" relative="1" as="geometry">
            <mxPoint x="710" y="470" as="sourcePoint" />
            <mxPoint x="925" y="470" as="targetPoint" />
          </mxGeometry>
        </mxCell>
        <mxCell id="8QuSxBZ-_rbjHL4d78aY-14" value="&lt;font color=&quot;#3333ff&quot; style=&quot;font-size: 18px;&quot;&gt;Video Cutting&lt;/font&gt;" style="text;html=1;align=center;verticalAlign=middle;whiteSpace=wrap;rounded=0;" vertex="1" parent="1">
          <mxGeometry x="516" y="350" width="170" height="30" as="geometry" />
        </mxCell>
        <mxCell id="8QuSxBZ-_rbjHL4d78aY-15" value="Real to be cutted" style="text;html=1;align=center;verticalAlign=middle;resizable=0;points=[];autosize=1;strokeColor=none;fillColor=none;fontSize=14;fontColor=#CC0000;" vertex="1" parent="1">
          <mxGeometry x="560" y="453" width="130" height="30" as="geometry" />
        </mxCell>
        <mxCell id="8QuSxBZ-_rbjHL4d78aY-21" value="" style="endArrow=classic;html=1;rounded=0;strokeWidth=2;" edge="1" parent="1">
          <mxGeometry width="50" height="50" relative="1" as="geometry">
            <mxPoint x="378" y="622" as="sourcePoint" />
            <mxPoint x="57" y="623" as="targetPoint" />
          </mxGeometry>
        </mxCell>
        <mxCell id="8QuSxBZ-_rbjHL4d78aY-22" value="" style="endArrow=classic;html=1;rounded=0;strokeWidth=2;" edge="1" parent="1">
          <mxGeometry width="50" height="50" relative="1" as="geometry">
            <mxPoint x="590" y="623" as="sourcePoint" />
            <mxPoint x="855" y="623" as="targetPoint" />
          </mxGeometry>
        </mxCell>
        <mxCell id="8QuSxBZ-_rbjHL4d78aY-23" value="Expected to be decoded" style="text;html=1;align=center;verticalAlign=middle;resizable=0;points=[];autosize=1;strokeColor=none;fillColor=none;fontSize=14;" vertex="1" parent="1">
          <mxGeometry x="390" y="606" width="170" height="30" as="geometry" />
        </mxCell>
        <mxCell id="8QuSxBZ-_rbjHL4d78aY-24" value="" style="endArrow=classic;html=1;rounded=0;strokeWidth=2;" edge="1" parent="1">
          <mxGeometry width="50" height="50" relative="1" as="geometry">
            <mxPoint x="859.64" y="615" as="sourcePoint" />
            <mxPoint x="859.64" y="585" as="targetPoint" />
          </mxGeometry>
        </mxCell>
        <mxCell id="8QuSxBZ-_rbjHL4d78aY-25" value="" style="endArrow=classic;html=1;rounded=0;strokeWidth=2;strokeColor=#CC0000;" edge="1" parent="1">
          <mxGeometry width="50" height="50" relative="1" as="geometry">
            <mxPoint x="300" y="650" as="sourcePoint" />
            <mxPoint x="299.68" y="585" as="targetPoint" />
          </mxGeometry>
        </mxCell>
        <mxCell id="8QuSxBZ-_rbjHL4d78aY-26" value="" style="endArrow=classic;html=1;rounded=0;strokeWidth=2;strokeColor=#CC0000;" edge="1" parent="1">
          <mxGeometry width="50" height="50" relative="1" as="geometry">
            <mxPoint x="699.9999999999999" y="653.5" as="sourcePoint" />
            <mxPoint x="699.68" y="588.5" as="targetPoint" />
          </mxGeometry>
        </mxCell>
        <mxCell id="8QuSxBZ-_rbjHL4d78aY-27" value="target_1" style="text;html=1;align=center;verticalAlign=middle;resizable=0;points=[];autosize=1;strokeColor=none;fillColor=none;" vertex="1" parent="1">
          <mxGeometry x="379" y="576" width="70" height="30" as="geometry" />
        </mxCell>
        <mxCell id="8QuSxBZ-_rbjHL4d78aY-28" value="target_2" style="text;html=1;align=center;verticalAlign=middle;resizable=0;points=[];autosize=1;strokeColor=none;fillColor=none;" vertex="1" parent="1">
          <mxGeometry x="860" y="576" width="70" height="30" as="geometry" />
        </mxCell>
        <mxCell id="8QuSxBZ-_rbjHL4d78aY-30" value="&lt;font color=&quot;#cc0000&quot;&gt;Real to be&lt;/font&gt;&lt;div&gt;&lt;font color=&quot;#cc0000&quot;&gt;&amp;nbsp;decoded&lt;/font&gt;&lt;/div&gt;" style="text;html=1;align=center;verticalAlign=middle;resizable=0;points=[];autosize=1;strokeColor=none;fillColor=none;fontSize=14;" vertex="1" parent="1">
          <mxGeometry x="737" y="620" width="90" height="50" as="geometry" />
        </mxCell>
        <mxCell id="8QuSxBZ-_rbjHL4d78aY-32" value="" style="endArrow=classic;html=1;rounded=0;strokeWidth=2;strokeColor=#CC0000;" edge="1" parent="1">
          <mxGeometry width="50" height="50" relative="1" as="geometry">
            <mxPoint x="820" y="640" as="sourcePoint" />
            <mxPoint x="857.5" y="640" as="targetPoint" />
          </mxGeometry>
        </mxCell>
        <mxCell id="8QuSxBZ-_rbjHL4d78aY-33" value="" style="endArrow=classic;html=1;rounded=0;strokeWidth=2;strokeColor=#CC0000;" edge="1" parent="1">
          <mxGeometry width="50" height="50" relative="1" as="geometry">
            <mxPoint x="741" y="640.32" as="sourcePoint" />
            <mxPoint x="701" y="640.0000000000001" as="targetPoint" />
          </mxGeometry>
        </mxCell>
        <mxCell id="8QuSxBZ-_rbjHL4d78aY-36" value="&lt;font color=&quot;#cc0000&quot;&gt;Real to be&lt;/font&gt;&lt;div&gt;&lt;font color=&quot;#cc0000&quot;&gt;&amp;nbsp;decoded&lt;/font&gt;&lt;/div&gt;" style="text;html=1;align=center;verticalAlign=middle;resizable=0;points=[];autosize=1;strokeColor=none;fillColor=none;fontSize=14;" vertex="1" parent="1">
          <mxGeometry x="295" y="640" width="90" height="50" as="geometry" />
        </mxCell>
        <mxCell id="8QuSxBZ-_rbjHL4d78aY-37" value="" style="endArrow=classic;html=1;rounded=0;strokeWidth=2;strokeColor=#CC0000;" edge="1" parent="1">
          <mxGeometry width="50" height="50" relative="1" as="geometry">
            <mxPoint x="362" y="640" as="sourcePoint" />
            <mxPoint x="373.5" y="640" as="targetPoint" />
          </mxGeometry>
        </mxCell>
        <mxCell id="8QuSxBZ-_rbjHL4d78aY-38" value="" style="endArrow=classic;html=1;rounded=0;strokeWidth=2;strokeColor=#CC0000;" edge="1" parent="1">
          <mxGeometry width="50" height="50" relative="1" as="geometry">
            <mxPoint x="320" y="640" as="sourcePoint" />
            <mxPoint x="305" y="640.0000000000001" as="targetPoint" />
          </mxGeometry>
        </mxCell>
        <mxCell id="8QuSxBZ-_rbjHL4d78aY-39" value="&lt;font color=&quot;#3333ff&quot; style=&quot;font-size: 18px;&quot;&gt;Video Decoding&lt;/font&gt;" style="text;html=1;align=center;verticalAlign=middle;whiteSpace=wrap;rounded=0;" vertex="1" parent="1">
          <mxGeometry x="531" y="680" width="170" height="30" as="geometry" />
        </mxCell>
      </root>
    </mxGraphModel>
  </diagram>
  <diagram id="QsgE5PnwHiIkelhUx_PX" name="GenAI">
    <mxGraphModel dx="2555" dy="955" grid="1" gridSize="10" guides="1" tooltips="1" connect="1" arrows="1" fold="1" page="1" pageScale="1" pageWidth="827" pageHeight="1169" math="0" shadow="0">
      <root>
        <mxCell id="0" />
        <mxCell id="1" parent="0" />
        <mxCell id="WDboA2EGqjVlqGyZ5xXQ-17" style="edgeStyle=orthogonalEdgeStyle;rounded=0;orthogonalLoop=1;jettySize=auto;html=1;entryX=1;entryY=0.5;entryDx=0;entryDy=0;" edge="1" parent="1" source="WDboA2EGqjVlqGyZ5xXQ-1" target="WDboA2EGqjVlqGyZ5xXQ-23">
          <mxGeometry relative="1" as="geometry">
            <mxPoint x="-380" y="390" as="targetPoint" />
            <Array as="points">
              <mxPoint x="-50" y="700" />
              <mxPoint x="-150" y="700" />
              <mxPoint x="-150" y="430" />
            </Array>
          </mxGeometry>
        </mxCell>
        <mxCell id="WDboA2EGqjVlqGyZ5xXQ-18" style="edgeStyle=orthogonalEdgeStyle;rounded=0;orthogonalLoop=1;jettySize=auto;html=1;entryX=0.5;entryY=0;entryDx=0;entryDy=0;" edge="1" parent="1" source="WDboA2EGqjVlqGyZ5xXQ-1" target="WDboA2EGqjVlqGyZ5xXQ-36">
          <mxGeometry relative="1" as="geometry">
            <Array as="points">
              <mxPoint x="-50" y="700" />
              <mxPoint x="360" y="700" />
              <mxPoint x="360" y="200" />
              <mxPoint x="-40" y="200" />
            </Array>
          </mxGeometry>
        </mxCell>
        <mxCell id="WDboA2EGqjVlqGyZ5xXQ-1" value="LLM" style="rounded=0;whiteSpace=wrap;html=1;" vertex="1" parent="1">
          <mxGeometry x="-110" y="585" width="120" height="60" as="geometry" />
        </mxCell>
        <mxCell id="WDboA2EGqjVlqGyZ5xXQ-4" value="Promt @task_a" style="shape=parallelogram;perimeter=parallelogramPerimeter;whiteSpace=wrap;html=1;fixedSize=1;fontSize=14;" vertex="1" parent="1">
          <mxGeometry x="100" y="421" width="170" height="40" as="geometry" />
        </mxCell>
        <mxCell id="WDboA2EGqjVlqGyZ5xXQ-12" style="edgeStyle=orthogonalEdgeStyle;rounded=0;orthogonalLoop=1;jettySize=auto;html=1;entryX=0;entryY=0.5;entryDx=0;entryDy=0;" edge="1" parent="1" source="WDboA2EGqjVlqGyZ5xXQ-6" target="WDboA2EGqjVlqGyZ5xXQ-4">
          <mxGeometry relative="1" as="geometry">
            <Array as="points">
              <mxPoint x="60" y="501" />
              <mxPoint x="60" y="441" />
            </Array>
          </mxGeometry>
        </mxCell>
        <mxCell id="WDboA2EGqjVlqGyZ5xXQ-13" style="edgeStyle=orthogonalEdgeStyle;rounded=0;orthogonalLoop=1;jettySize=auto;html=1;" edge="1" parent="1" source="WDboA2EGqjVlqGyZ5xXQ-6" target="WDboA2EGqjVlqGyZ5xXQ-9">
          <mxGeometry relative="1" as="geometry" />
        </mxCell>
        <mxCell id="WDboA2EGqjVlqGyZ5xXQ-14" style="edgeStyle=orthogonalEdgeStyle;rounded=0;orthogonalLoop=1;jettySize=auto;html=1;entryX=0;entryY=0.5;entryDx=0;entryDy=0;" edge="1" parent="1" source="WDboA2EGqjVlqGyZ5xXQ-6" target="WDboA2EGqjVlqGyZ5xXQ-10">
          <mxGeometry relative="1" as="geometry">
            <Array as="points">
              <mxPoint x="60" y="501" />
              <mxPoint x="60" y="591" />
            </Array>
          </mxGeometry>
        </mxCell>
        <mxCell id="WDboA2EGqjVlqGyZ5xXQ-15" style="edgeStyle=orthogonalEdgeStyle;rounded=0;orthogonalLoop=1;jettySize=auto;html=1;entryX=0.5;entryY=0;entryDx=0;entryDy=0;" edge="1" parent="1" source="WDboA2EGqjVlqGyZ5xXQ-6" target="WDboA2EGqjVlqGyZ5xXQ-1">
          <mxGeometry relative="1" as="geometry" />
        </mxCell>
        <mxCell id="WDboA2EGqjVlqGyZ5xXQ-6" value="Prompt Loader" style="rounded=0;whiteSpace=wrap;html=1;" vertex="1" parent="1">
          <mxGeometry x="-110" y="471" width="120" height="60" as="geometry" />
        </mxCell>
        <mxCell id="WDboA2EGqjVlqGyZ5xXQ-9" value="Promt @task_b" style="shape=parallelogram;perimeter=parallelogramPerimeter;whiteSpace=wrap;html=1;fixedSize=1;fontSize=14;" vertex="1" parent="1">
          <mxGeometry x="100" y="481" width="170" height="40" as="geometry" />
        </mxCell>
        <mxCell id="WDboA2EGqjVlqGyZ5xXQ-10" value="Promt @task_n" style="shape=parallelogram;perimeter=parallelogramPerimeter;whiteSpace=wrap;html=1;fixedSize=1;fontSize=14;" vertex="1" parent="1">
          <mxGeometry x="100" y="571" width="170" height="40" as="geometry" />
        </mxCell>
        <mxCell id="WDboA2EGqjVlqGyZ5xXQ-11" value="&lt;b&gt;&lt;font style=&quot;font-size: 18px;&quot;&gt;...&lt;/font&gt;&lt;/b&gt;" style="text;html=1;align=center;verticalAlign=middle;whiteSpace=wrap;rounded=0;rotation=90;" vertex="1" parent="1">
          <mxGeometry x="155" y="535" width="60" height="30" as="geometry" />
        </mxCell>
        <mxCell id="WDboA2EGqjVlqGyZ5xXQ-30" style="edgeStyle=orthogonalEdgeStyle;rounded=0;orthogonalLoop=1;jettySize=auto;html=1;entryX=0.5;entryY=0;entryDx=0;entryDy=0;" edge="1" parent="1" source="WDboA2EGqjVlqGyZ5xXQ-16" target="WDboA2EGqjVlqGyZ5xXQ-28">
          <mxGeometry relative="1" as="geometry" />
        </mxCell>
        <mxCell id="WDboA2EGqjVlqGyZ5xXQ-16" value="Cache" style="rounded=0;whiteSpace=wrap;html=1;" vertex="1" parent="1">
          <mxGeometry x="-110" y="300" width="120" height="60" as="geometry" />
        </mxCell>
        <mxCell id="WDboA2EGqjVlqGyZ5xXQ-21" style="edgeStyle=orthogonalEdgeStyle;rounded=0;orthogonalLoop=1;jettySize=auto;html=1;entryX=0;entryY=0.5;entryDx=0;entryDy=0;" edge="1" parent="1" source="WDboA2EGqjVlqGyZ5xXQ-19" target="WDboA2EGqjVlqGyZ5xXQ-16">
          <mxGeometry relative="1" as="geometry" />
        </mxCell>
        <mxCell id="WDboA2EGqjVlqGyZ5xXQ-19" value="Actor" style="shape=umlActor;verticalLabelPosition=bottom;verticalAlign=top;html=1;outlineConnect=0;" vertex="1" parent="1">
          <mxGeometry x="-390" y="300" width="30" height="60" as="geometry" />
        </mxCell>
        <mxCell id="WDboA2EGqjVlqGyZ5xXQ-22" value="Request / Query" style="text;html=1;align=center;verticalAlign=middle;resizable=0;points=[];autosize=1;strokeColor=none;fillColor=none;" vertex="1" parent="1">
          <mxGeometry x="-300" y="300" width="110" height="30" as="geometry" />
        </mxCell>
        <mxCell id="WDboA2EGqjVlqGyZ5xXQ-24" style="edgeStyle=orthogonalEdgeStyle;rounded=0;orthogonalLoop=1;jettySize=auto;html=1;" edge="1" parent="1" source="WDboA2EGqjVlqGyZ5xXQ-23">
          <mxGeometry relative="1" as="geometry">
            <mxPoint x="-375" y="390" as="targetPoint" />
          </mxGeometry>
        </mxCell>
        <mxCell id="WDboA2EGqjVlqGyZ5xXQ-23" value="Respond" style="rounded=0;whiteSpace=wrap;html=1;" vertex="1" parent="1">
          <mxGeometry x="-310" y="400" width="120" height="60" as="geometry" />
        </mxCell>
        <mxCell id="WDboA2EGqjVlqGyZ5xXQ-25" style="edgeStyle=orthogonalEdgeStyle;rounded=0;orthogonalLoop=1;jettySize=auto;html=1;entryX=0.5;entryY=0;entryDx=0;entryDy=0;" edge="1" parent="1" target="WDboA2EGqjVlqGyZ5xXQ-36">
          <mxGeometry relative="1" as="geometry">
            <mxPoint x="-375" y="280" as="sourcePoint" />
            <Array as="points">
              <mxPoint x="-375" y="200" />
              <mxPoint x="-40" y="200" />
              <mxPoint x="-40" y="220" />
            </Array>
          </mxGeometry>
        </mxCell>
        <mxCell id="WDboA2EGqjVlqGyZ5xXQ-26" value="Feedback" style="text;html=1;align=center;verticalAlign=middle;resizable=0;points=[];autosize=1;strokeColor=none;fillColor=none;" vertex="1" parent="1">
          <mxGeometry x="-240" y="168" width="80" height="30" as="geometry" />
        </mxCell>
        <mxCell id="WDboA2EGqjVlqGyZ5xXQ-31" style="edgeStyle=orthogonalEdgeStyle;rounded=0;orthogonalLoop=1;jettySize=auto;html=1;entryX=1;entryY=0.5;entryDx=0;entryDy=0;" edge="1" parent="1" source="WDboA2EGqjVlqGyZ5xXQ-28" target="WDboA2EGqjVlqGyZ5xXQ-23">
          <mxGeometry relative="1" as="geometry" />
        </mxCell>
        <mxCell id="WDboA2EGqjVlqGyZ5xXQ-33" value="Y" style="edgeLabel;html=1;align=center;verticalAlign=middle;resizable=0;points=[];" vertex="1" connectable="0" parent="WDboA2EGqjVlqGyZ5xXQ-31">
          <mxGeometry x="-0.6" y="-4" relative="1" as="geometry">
            <mxPoint x="4" y="-6" as="offset" />
          </mxGeometry>
        </mxCell>
        <mxCell id="WDboA2EGqjVlqGyZ5xXQ-32" style="edgeStyle=orthogonalEdgeStyle;rounded=0;orthogonalLoop=1;jettySize=auto;html=1;entryX=0.5;entryY=0;entryDx=0;entryDy=0;exitX=1;exitY=0.5;exitDx=0;exitDy=0;" edge="1" parent="1" source="WDboA2EGqjVlqGyZ5xXQ-28" target="WDboA2EGqjVlqGyZ5xXQ-6">
          <mxGeometry relative="1" as="geometry" />
        </mxCell>
        <mxCell id="WDboA2EGqjVlqGyZ5xXQ-34" value="N" style="edgeLabel;html=1;align=center;verticalAlign=middle;resizable=0;points=[];" vertex="1" connectable="0" parent="WDboA2EGqjVlqGyZ5xXQ-32">
          <mxGeometry x="-0.8156" y="-1" relative="1" as="geometry">
            <mxPoint x="-3" y="-11" as="offset" />
          </mxGeometry>
        </mxCell>
        <mxCell id="WDboA2EGqjVlqGyZ5xXQ-28" value="hit?" style="rhombus;whiteSpace=wrap;html=1;" vertex="1" parent="1">
          <mxGeometry x="-90" y="390" width="80" height="40" as="geometry" />
        </mxCell>
        <mxCell id="WDboA2EGqjVlqGyZ5xXQ-37" style="edgeStyle=orthogonalEdgeStyle;rounded=0;orthogonalLoop=1;jettySize=auto;html=1;entryX=0.5;entryY=0;entryDx=0;entryDy=0;exitX=0;exitY=0.5;exitDx=0;exitDy=0;" edge="1" parent="1" source="WDboA2EGqjVlqGyZ5xXQ-36" target="WDboA2EGqjVlqGyZ5xXQ-16">
          <mxGeometry relative="1" as="geometry" />
        </mxCell>
        <mxCell id="WDboA2EGqjVlqGyZ5xXQ-39" value="Y" style="edgeLabel;html=1;align=center;verticalAlign=middle;resizable=0;points=[];" vertex="1" connectable="0" parent="WDboA2EGqjVlqGyZ5xXQ-37">
          <mxGeometry x="-0.85" y="-1" relative="1" as="geometry">
            <mxPoint as="offset" />
          </mxGeometry>
        </mxCell>
        <mxCell id="WDboA2EGqjVlqGyZ5xXQ-38" style="edgeStyle=orthogonalEdgeStyle;rounded=0;orthogonalLoop=1;jettySize=auto;html=1;" edge="1" parent="1" source="WDboA2EGqjVlqGyZ5xXQ-36">
          <mxGeometry relative="1" as="geometry">
            <mxPoint x="90" y="250" as="targetPoint" />
          </mxGeometry>
        </mxCell>
        <mxCell id="WDboA2EGqjVlqGyZ5xXQ-40" value="N" style="edgeLabel;html=1;align=center;verticalAlign=middle;resizable=0;points=[];" vertex="1" connectable="0" parent="WDboA2EGqjVlqGyZ5xXQ-38">
          <mxGeometry x="-0.6243" y="-2" relative="1" as="geometry">
            <mxPoint x="-7" y="-2" as="offset" />
          </mxGeometry>
        </mxCell>
        <mxCell id="WDboA2EGqjVlqGyZ5xXQ-36" value="Positive?" style="rhombus;whiteSpace=wrap;html=1;" vertex="1" parent="1">
          <mxGeometry x="-80" y="230" width="80" height="40" as="geometry" />
        </mxCell>
        <mxCell id="WDboA2EGqjVlqGyZ5xXQ-41" value="Discard" style="text;html=1;align=center;verticalAlign=middle;resizable=0;points=[];autosize=1;strokeColor=none;fillColor=none;" vertex="1" parent="1">
          <mxGeometry x="90" y="230" width="60" height="30" as="geometry" />
        </mxCell>
        <mxCell id="WDboA2EGqjVlqGyZ5xXQ-42" value="Response" style="text;html=1;align=center;verticalAlign=middle;resizable=0;points=[];autosize=1;strokeColor=none;fillColor=none;" vertex="1" parent="1">
          <mxGeometry x="130" y="168" width="80" height="30" as="geometry" />
        </mxCell>
      </root>
    </mxGraphModel>
  </diagram>
  <diagram id="JsiXl99Ern8XyRr1PLCa" name="第 4 页">
    <mxGraphModel dx="2074" dy="1146" grid="1" gridSize="10" guides="1" tooltips="1" connect="1" arrows="1" fold="1" page="1" pageScale="1" pageWidth="827" pageHeight="1169" math="0" shadow="0">
      <root>
        <mxCell id="0" />
        <mxCell id="1" parent="0" />
      </root>
    </mxGraphModel>
  </diagram>
</mxfile>
